HIERARCHY
ROOT Hips
{
	OFFSET 0.000000 0.000000 0.000000 
	CHANNELS 6 Xposition Yposition Zposition Zrotation Yrotation Xrotation
	JOINT LeftUpLeg
	{
		OFFSET 1.363060 -1.794630 0.839290 
		CHANNELS 3 Zrotation Yrotation Xrotation
		JOINT LeftLeg
		{
			OFFSET 2.448110 -6.726130 0.000000 
			CHANNELS 3 Zrotation Yrotation Xrotation
			JOINT LeftFoot
			{
				OFFSET 2.562200 -7.039590 0.000000 
				CHANNELS 3 Zrotation Yrotation Xrotation
				JOINT LeftToeBase
				{
					OFFSET 0.157640 -0.433110 2.322550 
					CHANNELS 3 Zrotation Yrotation Xrotation
					End Site
					{
						OFFSET 0.000000 0.000000 0.000000 
					}
				}
			}
		}
	}
	JOINT RightUpLeg
	{
		OFFSET -1.305520 -1.794630 0.839290 
		CHANNELS 3 Zrotation Yrotation Xrotation
		JOINT RightLeg
		{
			OFFSET -2.542530 -6.985550 0.000000 
			CHANNELS 3 Zrotation Yrotation Xrotation
			JOINT RightFoot
			{
				OFFSET -2.568260 -7.056230 0.000000 
				CHANNELS 3 Zrotation Yrotation Xrotation
				JOINT RightToeBase
				{
					OFFSET -0.164730 -0.452590 2.363150 
					CHANNELS 3 Zrotation Yrotation Xrotation
					End Site
					{
						OFFSET 0.000000 0.000000 0.000000 
					}
				}
			}
		}
	}
	JOINT Spine
	{
		OFFSET 0.028270 2.035590 -0.193380 
		CHANNELS 3 Zrotation Yrotation Xrotation
		JOINT Spine1
		{
			OFFSET 0.056720 2.048850 -0.042750 
			CHANNELS 3 Zrotation Yrotation Xrotation
			JOINT Neck1
			{
				OFFSET -0.054170 1.746240 0.172020 
				CHANNELS 3 Zrotation Yrotation Xrotation
				JOINT Head
				{
					OFFSET 0.104070 1.761360 -0.123970 
					CHANNELS 3 Zrotation Yrotation Xrotation
					End Site
					{
						OFFSET 0.000000 0.000000 0.000000 
					}
				}
			}
			JOINT LeftArm
			{
				OFFSET 3.362410 1.200890 -0.311210 
				CHANNELS 3 Zrotation Yrotation Xrotation
				JOINT LeftForeArm
				{
					OFFSET 4.983000 -0.000000 -0.000000 
					CHANNELS 3 Zrotation Yrotation Xrotation
					JOINT LeftHand
					{
						OFFSET 3.483560 -0.000000 -0.000000 
						CHANNELS 3 Zrotation Yrotation Xrotation
						JOINT LeftHandIndex1
						{
							OFFSET 0.715260 -0.000000 -0.000000 
							CHANNELS 3 Zrotation Yrotation Xrotation
							End Site
							{
								OFFSET 0.000000 0.000000 0.000000 
							}
						}
					}
				}
			}
			JOINT RightArm
			{
				OFFSET -3.136600 1.374050 -0.404650 
				CHANNELS 3 Zrotation Yrotation Xrotation
				JOINT RightForeArm
				{
					OFFSET -5.241900 -0.000000 -0.000000 
					CHANNELS 3 Zrotation Yrotation Xrotation
					JOINT RightHand
					{
						OFFSET -3.444170 -0.000000 -0.000000 
						CHANNELS 3 Zrotation Yrotation Xrotation
						JOINT RightHandIndex1
						{
							OFFSET -0.622530 -0.000000 -0.000000 
							CHANNELS 3 Zrotation Yrotation Xrotation
							End Site
							{
								OFFSET 0.000000 0.000000 0.000000 
							}
						}
					}
				}
			}
		}
	}
}
MOTION
Frames: 14
Frame Time: 0.041667
-0.036725 17.747963 0.136697 0.416344 2.448384 4.207476 -18.116840 -21.907627 4.418452 -1.310962 2.098691 10.234333 -1.576373 8.599313 -6.687290 1.284300 -7.181400 -20.253800 22.969445 9.731382 8.547724 0.742770 1.264219 2.309667 1.333127 -9.478968 -6.718696 -0.598600 4.952900 -13.774200 -9.815324 0.349071 3.361612 8.020595 0.568817 -1.530562 7.896865 -17.121520 17.169781 5.614600 -8.560600 15.588700 -93.343794 -3.123697 23.655683 13.319900 -10.763999 -1.132524 1.388198 2.060836 26.831101 -7.125000 0.000000 0.000000 17.271930 -5.995612 1.006288 -17.557693 -4.110756 0.028344 1.012330 0.786859 0.014173 0.000000 0.000000 0.000000 
-0.038051 17.750207 0.136595 0.397307 2.458861 4.308316 -18.046484 -21.945944 4.331531 -1.312713 2.095352 10.217214 -1.546741 8.473888 -6.743115 1.128200 -6.746500 -18.966400 22.986726 9.750689 8.454723 0.742921 1.262433 2.309358 1.326679 -9.453434 -6.763180 -0.577300 4.865700 -13.525800 -9.728204 0.321572 3.201401 8.040900 0.559208 -1.499844 7.937983 -17.098844 17.167176 5.649400 -8.555400 15.587900 -93.285301 -3.074138 23.526270 13.366366 -10.808697 -1.129087 1.422616 2.002426 26.671853 -7.125000 0.000000 0.000000 17.260560 -6.001733 1.005613 -17.555668 -4.110381 0.028322 1.011745 0.786583 0.014163 0.000000 0.000000 0.000000 
-0.037643 17.750309 0.136799 0.436990 2.463717 4.309397 -18.099346 -21.956581 4.312678 -1.305065 2.113080 10.270691 -1.549130 8.473231 -6.675474 1.084300 -6.618100 -18.588800 22.933512 9.748399 8.443999 0.742021 1.261303 2.310004 1.316547 -9.399849 -6.800235 -0.534600 4.685000 -13.012200 -9.719807 0.304575 3.202453 8.071472 0.550915 -1.496285 7.997783 -17.063404 17.122038 5.693800 -8.542000 15.570200 -93.214798 -3.133928 23.567539 13.335532 -10.757761 -1.121681 1.440075 1.987896 26.439812 -7.125000 0.000000 0.000000 17.253350 -6.001718 1.005129 -17.548767 -4.108691 0.028305 1.011131 0.786354 0.014154 0.000000 0.000000 0.000000 
-0.036419 17.749289 0.137717 0.439340 2.436856 4.337346 -18.107056 -21.941659 4.261812 -1.299127 2.135896 10.332317 -1.545434 8.464332 -6.709887 1.085900 -6.622900 -18.602800 22.924847 9.780438 8.427877 0.741598 1.260565 2.310186 1.308970 -9.359988 -6.827305 -0.526900 4.651900 -12.918400 -9.752650 0.317272 3.129155 8.060947 0.559197 -1.487813 7.981318 -17.066281 17.103902 5.683700 -8.544500 15.552800 -93.156336 -3.170610 23.410435 13.304472 -10.713347 -1.115306 1.465419 1.975630 26.571076 -7.125000 0.000000 0.000000 17.253512 -6.003955 1.005202 -17.551537 -4.109708 0.028309 1.011450 0.786461 0.014156 0.000000 0.000000 0.000000 
-0.024279 17.765611 0.148632 0.360621 2.956879 5.918435 -17.494999 -22.872542 2.836519 -1.309442 2.169222 10.300028 -1.595625 8.652037 -6.471470 1.175000 -6.880100 -19.360700 22.949212 9.793706 6.808821 0.739464 1.238874 2.294696 1.304128 -9.364244 -6.786340 -0.518500 4.614900 -12.813300 -10.040950 -0.072720 1.452491 7.941377 0.381213 -0.562905 8.004076 -17.066741 17.097199 5.681100 -8.544300 15.520400 -93.067809 -3.091347 22.997469 13.318141 -10.692450 -1.118410 1.478991 1.979264 27.023162 -7.125000 0.000000 0.000000 17.272507 -6.118498 1.011441 -17.596454 -4.126780 0.028518 1.015888 0.791281 0.014260 0.000000 0.000000 0.000000 
-0.023055 17.765407 0.147714 -0.523965 2.770490 6.406654 -17.456378 -22.877355 2.649991 -1.330762 2.240637 10.356744 -1.570341 8.667417 -6.720771 1.182900 -6.902600 -19.427100 23.051279 9.834645 6.573855 0.719688 1.199617 2.298337 1.305238 -9.407587 -6.794225 -0.559200 4.790000 -13.310700 1.800849 0.422141 -1.666535 1.966549 0.533668 -2.439176 11.054434 -17.977671 18.794360 5.671700 -8.545900 15.513700 -90.810675 -0.957738 23.321565 12.027852 -11.560105 -1.213505 1.444274 2.275491 26.897245 -7.125000 0.000000 0.000000 89.843582 -0.626191 13.074489 -20.431767 19.747856 -2.100006 -1.230714 1.213481 29.605861 7.125000 0.000000 0.000000 
-0.022341 17.766223 0.148530 -0.514946 2.760799 6.415929 -17.450864 -22.880964 2.615917 -1.327603 2.262712 10.423609 -1.511971 8.459521 -7.046187 1.031700 -6.460800 -18.127400 23.036738 9.842712 6.576863 0.719508 1.199521 2.299049 1.298096 -9.371141 -6.829282 -0.566300 4.819600 -13.394600 1.711437 0.410203 -1.659902 1.934670 0.527368 -2.432026 11.056552 -17.983824 18.794150 5.659900 -8.539400 15.521400 -90.702617 -1.007701 23.347554 11.939975 -11.444280 -1.202427 1.433652 2.297347 26.829483 -7.125000 0.000000 0.000000 89.898906 -0.573353 13.049405 -20.378393 19.692623 -2.092310 -1.242564 1.221207 29.807154 7.125000 0.000000 0.000000 
-0.021015 17.767141 0.149857 -0.515955 2.724111 6.427988 -17.455389 -22.844690 2.608259 -1.327477 2.260523 10.421139 -1.489007 8.366854 -7.105709 1.005300 -6.380000 -17.891200 23.026556 9.879999 6.580995 0.718540 1.198651 2.298321 1.295836 -9.351202 -6.803277 -0.526100 4.648400 -12.908500 1.735179 0.400094 -1.685517 1.935378 0.521749 -2.427399 11.040368 -17.949860 18.793586 5.658800 -8.527300 15.519700 -90.659547 -1.048609 23.335881 11.860285 -11.336621 -1.192338 1.466989 2.292963 26.845241 -7.125000 0.000000 0.000000 89.859350 -0.560835 13.239184 -20.309020 19.599414 -2.079300 -1.262678 1.211724 29.811598 7.125000 0.000000 0.000000 
-0.020403 17.766631 0.151183 -0.513011 2.673992 6.477330 -17.467089 -22.804578 2.534046 -1.323681 2.278905 10.465886 -1.542499 8.587064 -6.972139 1.203000 -6.958800 -19.593400 23.019470 9.943165 6.548262 0.718701 1.197068 2.296421 1.301286 -9.381558 -6.777310 -0.531800 4.673000 -12.978100 1.735141 0.418672 -1.799200 1.931048 0.529749 -2.429971 11.036945 -17.918066 18.813998 5.667500 -8.517600 15.523100 -90.592770 -0.976375 23.363467 11.862146 -11.334261 -1.194611 1.536791 2.260782 26.872603 -7.125000 0.000000 0.000000 89.867715 -0.574654 13.251400 -20.229130 19.500200 -2.061945 -1.267192 1.216114 29.919042 7.125000 0.000000 0.000000 
-0.019790 17.766835 0.152203 -0.554371 2.660386 6.533984 -17.417887 -22.814844 2.415606 -1.313858 2.324504 10.584852 -1.550039 8.633133 -7.038066 1.223700 -7.016100 -19.763100 23.057083 9.984229 6.483223 0.719119 1.197001 2.296874 1.291926 -9.339567 -6.837806 -0.582200 4.885900 -13.583500 1.727827 0.416844 -1.885521 1.890032 0.526007 -2.416144 11.053151 -17.915354 18.856768 5.680800 -8.517100 15.562400 -90.515800 -0.925278 23.376953 11.877594 -11.352457 -1.199094 1.578088 2.243373 26.883582 -7.125000 0.000000 0.000000 89.879768 -0.586102 13.329162 -20.198605 19.453040 -2.039618 -1.225426 1.185649 29.807797 7.125000 0.000000 0.000000 
-0.018872 17.767345 0.153019 -0.634629 2.645213 6.576175 -17.329114 -22.823943 2.295597 -1.302073 2.376578 10.723291 -1.515914 8.512998 -7.231642 1.143700 -6.791000 -19.097600 23.131528 10.032525 6.413213 0.719457 1.197729 2.297799 1.278857 -9.275571 -6.907125 -0.644500 5.135700 -14.295900 1.754312 0.427779 -1.949193 1.843708 0.528205 -2.406034 11.042667 -17.932654 18.905913 5.673300 -8.522900 15.603300 -90.429423 -0.935974 23.421060 11.841539 -11.300452 -1.192503 1.585313 2.237644 26.983031 -7.125000 0.000000 0.000000 89.898362 -0.638185 13.567019 -20.235148 19.476534 -2.023458 -1.166135 1.108805 29.317124 7.125000 0.000000 0.000000 
-0.017954 17.766325 0.153733 -0.797612 2.627720 6.594886 -17.168045 -22.821394 2.168828 -1.284156 2.441575 10.886764 -1.527386 8.548923 -7.161694 1.225000 -7.019900 -19.774200 23.307580 10.073126 6.387098 0.721159 1.201989 2.299000 1.277817 -9.273752 -6.935061 -0.649500 5.155200 -14.351600 1.817977 0.457640 -1.962590 1.748380 0.537873 -2.384889 10.990237 -17.949254 18.937916 5.635200 -8.525000 15.626000 -90.336922 -0.949441 23.492905 11.799466 -11.245029 -1.187021 1.567360 2.254854 26.869893 -7.125000 0.000000 0.000000 89.923695 -0.659920 13.643705 -20.291286 19.536723 -2.026140 -1.135104 1.082692 29.126996 7.125000 0.000000 0.000000 
-0.018362 17.766019 0.153427 -0.876983 2.608297 6.637150 -17.081880 -22.822714 2.039623 -1.270353 2.491422 11.012441 -1.561344 8.679339 -7.040084 1.328600 -7.299400 -20.605300 23.393505 10.109949 6.354254 0.722026 1.203695 2.298755 1.281176 -9.292848 -6.928412 -0.635600 5.101000 -14.196800 1.883435 0.469108 -2.010919 1.725021 0.541446 -2.382841 10.927404 -17.958364 18.932848 5.595100 -8.527700 15.622900 -90.303909 -1.017642 23.548470 11.641200 -11.030337 -1.162388 1.562819 2.264988 26.488576 -7.125000 0.000000 0.000000 89.921706 -0.658123 13.692807 -20.305478 19.553627 -2.032727 -1.144387 1.087683 29.144312 7.125000 0.000000 0.000000 
-0.018362 17.767345 0.154447 -0.955997 2.610868 6.687707 -16.980883 -22.842910 1.941849 -1.264062 2.522784 11.087920 -1.557374 8.670920 -7.099497 1.288800 -7.193400 -20.289600 23.480858 10.118247 6.333261 0.722268 1.205167 2.298302 1.286752 -9.316144 -6.883522 -0.654600 5.175000 -14.408300 1.934366 0.467304 -2.119662 1.700379 0.537068 -2.393335 10.915637 -17.948977 18.927365 5.592200 -8.526500 15.610600 -90.241813 -1.007303 23.598397 11.514980 -10.849443 -1.136350 1.581485 2.235076 26.143209 -7.125000 0.000000 0.000000 89.957169 -0.686206 13.588036 -20.303313 19.554447 -2.032835 -1.143330 1.094485 29.325160 7.125000 0.000000 0.000000 
